<?xml version="1.0" standalone="no"?>
<!DOCTYPE svg PUBLIC "-//W3C//DTD SVG 20010904//EN"
 "http://www.w3.org/TR/2001/REC-SVG-20010904/DTD/svg10.dtd">
<svg version="1.0" xmlns="http://www.w3.org/2000/svg"
 width="1080.000000pt" height="1080.000000pt" viewBox="0 0 1080.000000 1080.000000"
 preserveAspectRatio="xMidYMid meet">

<g transform="translate(0.000000,1080.000000) scale(0.100000,-0.100000)"
fill="#000000" stroke="none">
<path d="M6216 9073 c-71 -219 -129 -402 -130 -407 -1 -10 134 -58 149 -52 5
2 33 72 60 156 28 84 56 155 62 157 7 3 80 -18 163 -45 l151 -51 9 23 c17 45
33 106 29 110 -2 2 -75 27 -161 55 l-156 52 35 104 c19 58 40 105 47 105 6 0
86 -25 176 -55 90 -30 165 -55 166 -55 5 0 46 131 43 135 -4 3 -503 165 -510
165 -3 0 -63 -179 -133 -397z"/>
<path d="M5104 9361 c-22 -10 -56 -37 -75 -60 -20 -22 -39 -38 -42 -34 -4 3
-7 24 -7 46 l0 40 -77 -7 c-43 -4 -78 -8 -79 -9 -1 -1 10 -145 24 -321 l26
-318 78 4 c43 3 80 7 81 9 2 2 -2 72 -9 154 -18 211 -17 264 4 304 33 62 137
93 189 56 32 -23 40 -61 58 -285 10 -113 18 -206 20 -208 1 -2 37 0 79 4 74 7
76 8 76 33 0 81 -33 424 -46 468 -17 61 -55 110 -101 129 -47 20 -150 17 -199
-5z"/>
<path d="M3665 9228 c-61 -33 -73 -102 -26 -149 49 -48 135 -31 162 33 33 80
-59 159 -136 116z"/>
<path d="M4347 9230 c-94 -24 -187 -93 -222 -166 -40 -82 -28 -229 26 -336 66
-130 198 -190 337 -154 80 20 128 45 174 90 48 46 66 82 79 151 26 144 -62
335 -186 397 -46 24 -149 32 -208 18z m142 -158 c63 -46 110 -211 81 -282 -25
-61 -111 -101 -174 -80 -99 32 -171 231 -116 318 42 67 148 89 209 44z"/>
<path d="M6797 8752 c-82 -152 -149 -281 -149 -287 0 -10 110 -75 129 -75 6 0
46 66 88 146 42 80 91 161 107 180 62 70 119 79 192 29 20 -14 40 -25 44 -24
4 0 26 23 49 52 39 49 41 53 25 71 -50 54 -140 70 -205 36 -20 -11 -37 -18
-37 -15 0 3 9 24 21 46 11 23 19 42 17 44 -2 2 -32 19 -68 39 l-65 35 -148
-277z"/>
<path d="M3783 8987 c-35 -17 -63 -35 -63 -40 0 -8 275 -552 285 -565 2 -2 35
13 74 33 l71 35 -142 282 c-79 155 -147 283 -153 285 -5 1 -38 -12 -72 -30z"/>
<path d="M5578 8895 c-17 -10 -32 -30 -39 -54 -15 -51 3 -90 54 -115 33 -16
45 -17 78 -7 66 20 91 104 46 156 -28 34 -98 43 -139 20z"/>
<path d="M3271 8846 l-53 -54 31 -45 c17 -25 31 -50 31 -55 0 -6 -16 -20 -35
-32 -19 -12 -35 -24 -35 -27 0 -3 50 -80 66 -101 1 -2 21 9 43 24 23 15 43 25
45 23 2 -2 44 -65 93 -139 125 -187 164 -220 254 -220 72 0 177 69 214 140 15
28 14 29 -34 64 -27 20 -53 36 -58 36 -5 0 -15 -11 -21 -25 -16 -36 -74 -62
-106 -47 -20 9 -186 235 -202 275 -3 9 20 30 66 60 38 26 70 50 70 54 0 8 -61
103 -66 103 -3 0 -38 -22 -79 -50 l-73 -49 -39 59 c-21 33 -43 60 -48 60 -6 0
-35 -24 -64 -54z"/>
<path d="M2894 8710 c-32 -13 -64 -59 -64 -92 0 -36 57 -98 89 -98 51 0 111
56 111 104 0 65 -73 112 -136 86z"/>
<path d="M7355 8657 c-93 -37 -170 -113 -219 -217 -60 -128 -35 -241 76 -346
91 -86 168 -114 262 -94 31 6 58 15 61 19 2 5 -5 36 -16 70 -18 54 -24 61 -42
55 -95 -30 -217 50 -217 143 0 31 27 113 37 113 2 0 48 -35 101 -78 53 -43
128 -102 166 -132 l69 -54 39 44 c88 102 115 218 71 305 -31 59 -100 124 -168
156 -48 23 -73 29 -125 28 -36 0 -78 -6 -95 -12z m200 -148 c34 -20 65 -67 65
-99 0 -27 -29 -90 -42 -90 -7 0 -151 109 -208 157 -8 7 43 42 75 52 36 11 70
5 110 -20z"/>
<path d="M3042 8492 c-28 -26 -52 -51 -52 -55 0 -5 94 -116 209 -247 l208
-238 62 53 61 54 -211 240 c-116 133 -214 241 -217 241 -4 -1 -31 -22 -60 -48z"/>
<path d="M2793 8235 c-96 -48 -183 -172 -183 -262 0 -141 137 -225 263 -162
23 12 70 41 103 65 73 52 115 58 140 19 14 -21 14 -30 4 -55 -26 -62 -116
-120 -187 -120 -25 0 -28 -13 -17 -94 l7 -46 41 0 c93 0 222 95 276 203 47 94
40 170 -23 235 -43 46 -78 62 -129 62 -54 0 -104 -23 -193 -89 -95 -70 -145
-68 -145 6 0 46 61 108 123 125 51 13 51 14 41 92 -6 44 -8 46 -38 46 -18 0
-55 -11 -83 -25z"/>
<path d="M7869 8187 c-102 -29 -214 -120 -259 -212 -35 -70 -35 -179 -1 -248
32 -66 113 -151 168 -178 45 -22 153 -33 169 -17 4 4 3 36 -2 70 l-9 63 -41 2
c-59 2 -101 27 -135 81 -37 59 -38 104 -2 160 15 23 30 42 34 42 3 0 66 -72
139 -160 73 -88 136 -160 139 -160 11 0 99 75 125 107 85 103 73 236 -33 355
-74 83 -194 122 -292 95z m169 -157 c40 -25 72 -75 72 -115 0 -25 -42 -105
-55 -105 -3 0 -128 146 -164 192 -12 16 -10 20 20 33 47 20 88 18 127 -5z"/>
<path d="M8329 7644 c-173 -103 -327 -196 -343 -207 -31 -22 -65 -88 -66 -128
0 -30 43 -120 70 -144 18 -17 21 -16 70 20 49 36 50 38 35 61 -22 34 -19 50
18 77 17 13 160 100 317 192 157 92 289 171 294 176 8 7 -62 139 -74 139 -4 0
-148 -84 -321 -186z"/>
<path d="M2442 7711 c-79 -27 -135 -82 -184 -180 -42 -83 -45 -178 -9 -254 46
-93 176 -186 295 -208 140 -26 278 64 336 218 30 79 24 182 -13 245 -49 84
-147 155 -252 182 -76 20 -108 20 -173 -3z m190 -183 c68 -36 115 -88 124
-135 8 -41 -28 -118 -69 -147 -39 -29 -109 -26 -174 7 -134 68 -173 149 -118
242 48 82 125 93 237 33z"/>
<path d="M8492 7291 c-35 -50 -40 -71 -18 -71 7 0 34 -16 58 -35 78 -59 113
-166 66 -199 -12 -9 -30 -16 -38 -16 -20 0 -69 51 -104 108 -36 58 -94 120
-127 138 -47 24 -117 18 -175 -16 -97 -55 -119 -158 -58 -271 26 -47 75 -89
105 -89 8 0 21 -5 29 -10 12 -8 11 -12 -7 -32 -12 -13 -25 -35 -28 -50 -9 -34
19 -119 46 -143 18 -18 21 -17 69 5 28 13 50 25 50 27 0 2 -6 12 -12 23 -22
35 2 52 162 116 223 89 256 122 248 246 -7 93 -51 180 -123 246 -30 27 -67 54
-83 60 -27 9 -30 7 -60 -37z m-167 -217 c8 -4 30 -27 47 -53 17 -25 42 -58 56
-73 l25 -28 -39 -16 c-21 -9 -60 -19 -86 -22 -44 -4 -50 -2 -82 30 -41 41 -53
78 -36 117 17 41 70 62 115 45z"/>
<path d="M1922 7105 c-55 -28 -86 -62 -119 -130 -30 -61 -116 -366 -107 -375
8 -7 789 -240 805 -240 3 0 16 34 29 76 17 57 19 78 10 84 -6 4 -71 24 -143
45 -73 21 -135 41 -139 44 -4 4 6 54 22 111 45 158 38 233 -28 310 -49 59
-121 92 -207 97 -61 4 -77 1 -123 -22z m175 -162 c37 -17 73 -65 73 -97 0 -24
-38 -166 -49 -185 -7 -10 -33 -5 -132 24 -68 21 -125 38 -126 39 -5 5 47 158
63 184 9 17 27 35 38 41 32 15 94 13 133 -6z"/>
<path d="M8558 6617 c-163 -29 -300 -55 -303 -59 -4 -3 -1 -40 5 -80 l12 -75
167 29 c181 30 263 34 301 15 66 -33 95 -151 48 -194 -30 -27 -38 -29 -263
-67 -108 -18 -198 -36 -202 -39 -5 -6 13 -147 21 -154 1 -1 107 15 236 37 191
33 242 45 284 68 87 48 115 134 81 249 -19 64 -46 98 -98 125 -37 18 -40 22
-22 29 11 4 32 8 47 8 15 1 29 4 31 9 3 4 0 38 -7 77 -8 48 -16 70 -26 72 -8
1 -149 -22 -312 -50z"/>
<path d="M2033 6040 c-148 -22 -223 -114 -223 -275 0 -129 59 -229 168 -282
51 -25 68 -28 157 -28 127 0 191 21 256 86 61 60 84 126 84 239 -1 118 -37
191 -123 247 -27 19 -38 11 -72 -51 l-25 -46 33 -29 c38 -36 52 -68 52 -124 0
-79 -50 -142 -123 -154 l-37 -6 0 206 c0 250 7 239 -147 217z m42 -281 c4 -71
5 -133 1 -136 -11 -11 -82 16 -105 41 -30 31 -43 91 -31 137 11 39 32 63 70
78 57 22 57 22 65 -120z"/>
<path d="M8543 5916 c-133 -34 -212 -133 -221 -278 -6 -98 2 -136 37 -188 26
-39 101 -100 123 -100 4 0 25 26 45 57 33 53 35 58 18 67 -91 54 -114 128 -68
219 29 58 149 83 259 56 136 -35 154 -204 30 -274 -18 -10 -17 -15 19 -68 21
-32 45 -57 55 -57 30 0 96 67 120 122 32 75 33 202 1 273 -48 108 -147 170
-286 179 -50 4 -99 1 -132 -8z"/>
<path d="M2215 5356 c-237 -71 -275 -86 -310 -128 -83 -98 -24 -293 98 -323
40 -10 42 -23 13 -54 -41 -43 -50 -90 -31 -163 19 -76 52 -121 105 -144 22
-10 40 -21 40 -26 0 -4 -17 -12 -39 -18 l-39 -10 21 -73 c11 -39 21 -73 23
-75 2 -4 604 175 611 182 6 5 -23 121 -36 142 -4 7 -65 -7 -181 -42 -241 -73
-305 -71 -345 6 -22 43 -19 93 8 118 14 13 97 43 232 82 116 34 212 64 214 66
5 5 -29 136 -38 146 -3 4 -91 -18 -194 -48 -200 -58 -229 -62 -281 -40 -49 20
-80 98 -60 151 10 25 45 39 254 100 107 32 199 61 204 66 13 12 -26 143 -44
146 -8 1 -109 -26 -225 -61z"/>
<path d="M8430 5291 c-118 -39 -201 -154 -217 -301 -7 -71 15 -142 60 -195
l32 -37 48 42 c26 23 47 46 47 50 0 5 -11 26 -25 46 -32 47 -32 96 0 161 18
35 36 56 59 67 40 19 116 22 116 4 0 -6 -22 -99 -50 -205 -27 -106 -50 -195
-50 -198 0 -6 91 -31 143 -40 21 -3 64 -1 94 5 140 30 236 222 190 381 -40
136 -161 217 -337 225 -47 2 -96 0 -110 -5z m284 -222 c58 -51 61 -146 6 -201
-24 -23 -37 -28 -79 -28 -28 0 -51 2 -51 5 0 3 14 62 31 130 21 82 36 125 45
125 7 0 29 -14 48 -31z"/>
<path d="M8102 4658 c-18 -39 -31 -72 -29 -74 1 -1 70 -32 152 -70 173 -78
221 -107 241 -145 22 -43 18 -101 -11 -143 -14 -20 -25 -39 -25 -41 0 -2 26
-22 57 -44 52 -37 59 -39 74 -25 50 45 64 145 28 203 -25 41 -20 47 20 27 16
-9 36 -16 43 -16 17 1 74 128 62 139 -9 8 -567 261 -576 261 -2 0 -18 -32 -36
-72z"/>
<path d="M2508 4302 c-147 -81 -270 -151 -274 -154 -8 -9 57 -138 70 -138 6 0
135 68 287 152 l277 152 -36 68 c-21 37 -41 68 -47 68 -5 -1 -130 -67 -277
-148z"/>
<path d="M2058 4075 c-73 -40 -47 -165 37 -181 99 -18 152 105 73 171 -33 28
-70 31 -110 10z"/>
<path d="M2765 3864 c-137 -107 -262 -204 -276 -214 l-27 -20 -72 95 c-40 52
-75 95 -78 95 -3 0 -30 -18 -59 -41 -49 -36 -53 -43 -40 -57 7 -10 98 -126
201 -259 103 -134 190 -243 193 -243 3 0 30 18 59 41 l53 41 -68 86 c-37 48
-71 92 -74 99 -5 7 95 91 273 228 181 141 277 221 272 229 -26 42 -88 116 -97
115 -5 0 -122 -88 -260 -195z"/>
<path d="M7712 3979 l-64 -68 152 -236 c83 -130 150 -240 148 -245 -2 -4 -115
52 -253 125 l-250 133 -66 -70 -66 -70 106 -157 c58 -86 169 -250 246 -364
l140 -207 52 57 c29 32 53 62 53 66 0 5 -77 118 -171 253 -94 135 -169 248
-167 253 2 5 126 -58 276 -139 l273 -148 50 53 50 53 -166 257 c-91 142 -164
262 -163 267 2 5 122 -62 266 -148 l264 -157 60 60 60 60 -364 210 c-199 116
-372 215 -383 220 -17 9 -29 0 -83 -58z"/>
<path d="M3418 3546 c-33 -51 -34 -62 -8 -76 44 -24 27 -53 -202 -343 -121
-155 -225 -287 -230 -293 -5 -7 13 -28 51 -58 33 -25 63 -46 68 -45 12 1 442
551 475 607 33 55 35 103 9 152 -20 39 -93 100 -119 100 -9 0 -29 -20 -44 -44z"/>
<path d="M3676 3342 l-28 -56 26 -19 c15 -11 26 -28 26 -42 0 -13 -88 -163
-196 -335 -107 -172 -194 -313 -192 -314 2 -1 33 -21 69 -43 l65 -41 202 321
c110 177 206 335 212 350 33 91 -13 177 -121 221 l-35 15 -28 -57z"/>
<path d="M6983 3331 c-69 -23 -156 -91 -188 -144 -40 -69 -50 -141 -31 -217
48 -185 200 -314 350 -296 67 8 164 56 216 109 61 60 84 116 85 202 0 60 -5
80 -36 145 -48 99 -96 152 -171 189 -72 37 -144 40 -225 12z m149 -149 c55
-32 127 -158 128 -222 0 -71 -75 -140 -152 -140 -68 0 -151 84 -185 187 -28
88 7 158 94 188 41 15 73 11 115 -13z"/>
<path d="M3895 2899 c-66 -159 -119 -293 -118 -297 2 -12 136 -63 144 -55 4 5
35 76 69 158 73 178 100 226 137 250 72 48 193 -3 193 -81 0 -9 -37 -104 -81
-212 -45 -108 -82 -203 -83 -210 0 -8 28 -26 69 -42 56 -22 72 -25 78 -14 28
49 179 432 183 468 12 83 -26 151 -108 192 -76 39 -142 42 -200 10 -52 -28
-56 -24 -33 31 8 19 15 37 15 38 0 4 -128 55 -138 55 -4 0 -61 -131 -127 -291z"/>
<path d="M6510 3083 c-36 -13 -69 -28 -73 -32 -4 -4 20 -82 54 -172 65 -175
77 -242 49 -293 -17 -32 -77 -66 -116 -66 l-27 0 7 -61 c4 -33 10 -67 13 -75
13 -34 125 2 161 53 11 16 23 45 27 66 9 44 17 41 35 -12 7 -23 17 -41 21 -41
12 0 123 43 133 51 6 5 -206 597 -217 605 -1 1 -31 -10 -67 -23z"/>
<path d="M6135 2953 c-11 -2 -43 -8 -71 -14 l-50 -10 24 -129 c14 -72 22 -133
19 -137 -4 -3 -50 34 -103 83 -53 49 -111 101 -128 115 l-31 26 -83 -15 c-45
-8 -82 -18 -82 -22 0 -4 67 -70 150 -146 82 -76 150 -143 150 -148 0 -5 -36
-78 -81 -163 -44 -85 -78 -157 -76 -160 6 -6 141 17 155 26 4 3 39 65 77 136
37 72 70 132 71 134 10 11 19 -24 61 -245 24 -132 46 -240 47 -242 4 -3 148
27 153 32 8 8 -163 879 -172 881 -6 2 -19 1 -30 -2z"/>
<path d="M4935 2878 c-2 -13 -17 -88 -31 -168 -14 -80 -27 -146 -29 -148 -3
-3 -250 39 -311 53 -18 4 -22 -2 -33 -61 -6 -37 -10 -68 -8 -71 3 -2 75 -17
161 -32 86 -16 159 -31 162 -34 6 -5 -30 -204 -38 -213 -3 -3 -82 9 -174 25
-93 17 -174 31 -180 31 -10 0 -40 -128 -32 -135 11 -9 523 -94 528 -88 10 12
154 822 147 829 -4 4 -138 34 -154 34 -2 0 -5 -10 -8 -22z"/>
<path d="M5456 2845 c-21 -19 -26 -33 -26 -70 0 -64 31 -95 95 -95 81 0 127
70 94 143 -23 52 -117 64 -163 22z"/>
</g>
</svg>
